# AST/ASF file generated using VICON BodyLanguage
# -----------------------------------------------
:version 1.10
:name VICON
:units
  mass 1.0
  length 0.45
  angle deg
:documentation
   .ast/.asf automatically generated from VICON data using
   VICON BodyBuilder and BodyLanguage model FoxedUp or BRILLIANT.MOD
:root
   order TX TY TZ RX RY RZ
   axis XYZ
   position 0 0 0  
   orientation 0 0 0 
:bonedata
  begin
     id 1 
     name lhipjoint
     direction 0.54267 -0.795011 0.271047 
     length 2.39899 
     axis 0 0 0  XYZ
  end
  begin
     id 2 
     name lfemur
     direction 0.34202 -0.939693 0  
     length 7.49701  
     axis 0 0 20  XYZ
    dof rx ry rz
    limits (-160.0 20.0)
           (-70.0 70.0)
           (-60.0 70.0)
  end
  begin
     id 3 
     name ltibia
     direction 0.34202 -0.939693 0   
     length 8.1668   
     axis 0 0 20   XYZ
    dof rx
    limits (-10.0 170.0)
  end
  begin
     id 4 
     name lfoot
     direction 0.0736283 -0.202292 0.976554   
     length 2.13544   
     axis -90 7.62852e-016 20   XYZ
    dof rx rz
    limits (-45.0 90.0)
           (-70.0 20.0)
  end
  begin
     id 5 
     name ltoes
     direction 1.53557e-011 -4.22024e-011 1   
     length 1.07411   
     axis -90 7.62852e-016 20   XYZ
    dof rx
    limits (-90.0 20.0)
  end
  begin
     id 6 
     name rhipjoint
     direction -0.538061 -0.797813 0.272002   
     length 2.39057  
     axis 0 0 0  XYZ 
  end
  begin
     id 7 
     name rfemur
     direction -0.34202 -0.939693 0   
     length 7.50152   
     axis 0 0 -20   XYZ
    dof rx ry rz
    limits (-160.0 20.0)
           (-70.0 70.0)
           (-70.0 60.0)
  end
  begin
     id 8 
     name rtibia
     direction -0.34202 -0.939693 0   
     length 8.05793   
     axis 0 0 -20   XYZ
    dof rx
    limits (-10.0 170.0)
 end
 begin
     id 9 
     name rfoot
     direction -0.0765195 -0.210236 0.974652   
     length 2.28698  
     axis -90 -7.62852e-016 -20   XYZ
    dof rx rz
    limits (-45.0 90.0)
           (-20.0 70.0)
  end
  begin
     id 10 
     name rtoes
     direction -1.53542e-011 -4.21847e-011 1   
     length 1.14762   
     axis -90 -7.62852e-016 -20   XYZ
    dof rx
    limits (-90.0 20.0)
  end
  begin
     id 11 
     name lowerback
     direction -0.0217239 0.996592 -0.0795765   
     length 2.08176   
     axis 0 0 0   XYZ
    dof rx ry rz
    limits (-20.0 45.0)
           (-30.0 30.0)
           (-30.0 30.0)
  end
  begin
     id 12 
     name upperback
     direction -0.00563773 0.999651 -0.0258155   
     length 2.08898   
     axis 0 0 0   XYZ
    dof rx ry rz
    limits (-20.0 45.0)
           (-30.0 30.0)
           (-30.0 30.0)
  end
  begin
     id 13 
     name thorax
     direction 0.0032706 0.999923 0.0119599   
     length 2.0968   
     axis 0 0 0   XYZ
    dof rx ry rz
    limits (-20.0 45.0)
           (-30.0 30.0)
           (-30.0 30.0)
  end
  begin
     id 14 
     name lowerneck
     direction -0.0285886 0.99568 0.0883427   
     length 1.81272   
     axis 0 0 0   XYZ
    dof rx ry rz
    limits (-20.0 45.0)
           (-30.0 30.0)
           (-30.0 30.0)
  end
  begin
     id 15 
     name upperneck
     direction 0.0807535 0.97985 -0.18268   
     length 1.82518   
     axis 0 0 0   XYZ
    dof rx ry rz
    limits (-20.0 45.0)
           (-30.0 30.0)
           (-30.0 30.0)
  end
  begin
     id 16
     name head
     direction 0.0236605 0.997053 -0.0729767  
     length 1.84443  
     axis 0 0 0   XYZ
    dof rx ry rz
    limits (-20.0 45.0)
           (-30.0 30.0)
           (-30.0 30.0)
  end
  begin
     id 17 
     name lclavicle
     direction 0.918986 0.39378 -0.0200683  
     length 3.27822  
     axis 0 0 0   XYZ
    dof ry rz
    limits (-20.0 10.0)
           (0.0 20.0)
  end
  begin
     id 18 
     name lhumerus
     direction 1 -4.4897e-011 2.09544e-027   
     length 5.5568   
     axis 180 -30 -90   XYZ
    dof rx ry rz
    limits (-60.0 90.0)
           (-90.0 90.0)
           (-90.0 90.0)
  end
  begin
     id 19
     name lradius
     direction 1 -4.48957e-011 -1.27696e-026   
     length 3.63979   
     axis 180 -30 -90   XYZ
    dof rx
    limits (-10.0 170.0)
  end
  begin
     id 20
     name lwrist
     direction 1 -4.49001e-011 -1.49001e-026   
     length 1.8199   
     axis 9.0955e-015 90 90   XYZ
    dof ry
    limits (-180.0 0.0)
 end
  begin
     id 21 
     name lhand
     direction 1 -4.48709e-011 -2.9758e-026   
     length 0.569419   
     axis 1.90115e-014 90 90   XYZ
    dof rx rz
    limits (-90.0 90.0)
           (-45.0 45.0)
  end
  begin
     id 22 
     name lfingers
     direction 1 -4.49175e-011 -5.96505e-026   
     length 0.45908   
     axis 3.80223e-014 90 90   XYZ
    dof rx
    limits (0.0 90.0)
  end
  begin
     id 23
     name lthumb
     direction 0.707107 -6.34864e-011 0.707107   
     length 0.65915   
     axis -90 45 -3.84942e-014   XYZ
    dof rx rz
    limits (-45.0 45.0)
           (-45.0 45.0)
  end
  begin
     id 24 
     name rclavicle
     direction -0.911913 0.396426 -0.106115   
     length 3.46301  
     axis 0 0 0   XYZ 
    dof ry rz
    limits (-10.0 20.0)
           (-20.0 0.0)
  end
  begin
     id 25 
     name rhumerus
     direction -1 -4.48965e-011 7.78516e-028  
     length 5.34339   
     axis 180 30 90   XYZ
    dof rx ry rz
    limits (-90.0 60.0)
           (-90.0 90.0)
           (-90.0 90.0)
  end
  begin
     id 26 
     name rradius
     direction -1 -4.48948e-011 -5.79823e-027   
     length 3.65101   
     axis 180 30 90   XYZ
    dof rx
    limits (-10.0 170.0)
  end
  begin
     id 27 
     name rwrist
     direction -1 -4.48995e-011 -1.48996e-026   
     length 1.8255   
     axis 9.0955e-015 -90 -90   XYZ
    dof ry
    limits (-180.0 0.0)
  end
  begin
     id 28
     name rhand
     direction -1 -4.48957e-011 -2.97937e-026   
     length 0.694249   
     axis 1.90115e-014 -90 -90   XYZ
    dof rx rz
    limits (-90.0 90.0)
           (-45.0 45.0)
  end
  begin
     id 29
     name rfingers
     direction -1 -4.4898e-011 -5.95943e-026   
     length 0.559721   
     axis 3.80223e-014 -90 -90   XYZ
    dof rx
    limits (0.0 90.0)
  end
  begin
     id 30
     name rthumb
     direction -0.707107 -6.34969e-011 0.707107   
     length 0.803651   
     axis -90 -45 3.84942e-014   XYZ
    dof rx rz
    limits (-45.0 45.0)
           (-45.0 45.0)
  end
:hierarchy
  begin
    root lhipjoint rhipjoint lowerback
    lhipjoint lfemur
    lfemur ltibia
    ltibia lfoot
    lfoot ltoes
    rhipjoint rfemur
    rfemur rtibia
    rtibia rfoot
    rfoot rtoes
    lowerback upperback
    upperback thorax
    thorax lowerneck lclavicle rclavicle
    lowerneck upperneck
    upperneck head
    lclavicle lhumerus
    lhumerus lradius
    lradius lwrist
    lwrist lhand lthumb
    lhand lfingers
    rclavicle rhumerus
    rhumerus rradius
    rradius rwrist
    rwrist rhand rthumb
    rhand rfingers
  end

#!OML:ASF H:\Terrain\Walking\May29\JustinRory\rory.ASF
:FULLY-SPECIFIED
:DEGREES
721
root 6.38872 18.8911 8.72216 -176.27 1.74155 -180.996
lowerback -1.67851 0.570866 -3.08432
upperback -0.451207 0.815636 0.864865
thorax 0.422659 0.409868 2.6331
lowerneck -12.1564 -2.82565 -3.92643
upperneck 16.5175 -3.55966 0.631803
head 7.14604 -2.02998 0.488181
rclavicle -2.60905e-016 -9.74045e-015
rhumerus -25.4852 26.339 -98.1914
rradius 112.617
rwrist -24.4785
rhand 74.4985 33.561
rfingers 7.12502
rthumb 71.4208 -474.132
lclavicle -2.60905e-016 -9.74045e-015
lhumerus -29.5981 -30.7336 107.12
lradius 116.289
lwrist 22.6726
lhand -35.7325 24.6381
lfingers 7.12502
lthumb -8.85168 54.4325
rfemur -1.72757 12.6056 15.4189
rtibia 10.1086
rfoot -5.90243 -20.8925
rtoes 11.9541
lfemur 1.59838 -4.06558 -19.0585
ltibia 6.2083
lfoot -10.3146 11.4619
ltoes -10.09
722
root 6.38967 18.8954 8.72282 -176.301 1.87825 -180.945
lowerback -1.61203 0.626913 -3.07982
upperback -0.413763 0.887846 0.902189
thorax 0.418322 0.445315 2.66966
lowerneck -12.3007 -2.84219 -3.81107
upperneck 16.4625 -3.55432 0.444848
head 7.14785 -2.03212 0.407971
rclavicle -1.41634e-015 -5.1684e-015
rhumerus -25.6361 26.9131 -98.5389
rradius 112.557
rwrist -24.8184
rhand 73.6138 34.8065
rfingers 7.12502
rthumb 71.9216 -473.175
lclavicle -1.41634e-015 -5.1684e-015
lhumerus -29.9236 -31.2809 107.609
lradius 116.098
lwrist 22.7598
lhand -34.5711 27.043
lfingers 7.12502
lthumb -7.73078 56.8816
rfemur -1.54039 12.7503 15.469
rtibia 9.72468
rfoot -5.45346 -20.9567
rtoes 11.5217
lfemur 1.51465 -3.9287 -18.9952
ltibia 6.44164
lfoot -10.4945 11.4987
ltoes -10.6112
723
root 6.39177 18.8959 8.72849 -176.333 1.97134 -180.741
lowerback -1.42762 0.639747 -2.9387
upperback -0.40416 0.897075 0.997226
thorax 0.324853 0.451521 2.68574
lowerneck -12.4755 -2.8233 -3.60131
upperneck 16.3491 -3.4976 0.171097
head 7.13156 -2.00946 0.289642
rclavicle -3.72721e-015 3.37934e-015
rhumerus -25.9598 27.6908 -98.9881
rradius 112.165
rwrist -24.8796
rhand 72.1666 41.0688
rfingers 7.12502
rthumb 72.6768 -475.568
lclavicle -3.72721e-015 3.37934e-015
lhumerus -30.2046 -31.8812 107.999
lradius 116.04
lwrist 23.1455
lhand -35.1814 27.9764
lfingers 7.12502
lthumb -8.31983 57.7925
rfemur -1.27897 12.8629 15.7188
rtibia 9.18616
rfoot -4.7092 -20.9921
rtoes 10.7131
lfemur 1.37857 -3.82673 -18.7628
ltibia 6.82423
lfoot -10.7701 11.3844
ltoes -9.87678
724
root 6.39176 18.9054 8.73171 -176.276 2.04045 -180.602
lowerback -1.37424 0.60699 -2.77913
upperback -0.373999 0.84976 1.03842
thorax 0.330829 0.42741 2.6372
lowerneck -12.7253 -3.10953 -3.35785
upperneck 16.2062 -3.2954 -0.0385988
head 7.12036 -1.68427 0.227801
rclavicle -9.62863e-015 -9.93923e-016
rhumerus -26.3016 28.6303 -99.5046
rradius 111.74
rwrist -24.8544
rhand 69.2455 47.8379
rfingers 7.12502
rthumb 73.9192 -473.509
lclavicle -9.62863e-015 -9.93923e-016
lhumerus -30.3905 -32.5347 108.314
lradius 116.015
lwrist 23.4374
lhand -36.575 27.5669
lfingers 7.12502
lthumb -9.66466 57.3252
rfemur -1.1257 12.9398 15.8533
rtibia 8.68889
rfoot -4.43398 -20.9801
rtoes 10.6883
lfemur 1.18606 -3.74947 -18.6118
ltibia 7.12587
lfoot -11.008 11.2317
ltoes -8.9278
725
root 6.39266 18.9135 8.73254 -176.23 2.32134 -180.706
lowerback -1.3946 0.659109 -2.88969
upperback -0.296276 0.920783 1.015
thorax 0.415834 0.459911 2.67727
lowerneck -13.1212 -2.98515 -3.44642
upperneck 16.2519 -3.12098 0.0594728
head 7.20474 -1.60175 0.285114
rclavicle -7.06928e-015 9.93923e-016
rhumerus -26.5713 29.5325 -99.9586
rradius 111.44
rwrist -24.7978
rhand 66.1367 52.301
rfingers 7.12502
rthumb 74.7442 -467.264
lclavicle -7.06928e-015 9.93923e-016
lhumerus -30.6919 -33.0887 108.929
lradius 115.825
lwrist 23.3527
lhand -37.5299 26.1
lfingers 7.12502
lthumb -10.5858 55.8134
rfemur -1.08228 13.2103 15.672
rtibia 8.41463
rfoot -4.6554 -20.894
rtoes 12.0393
lfemur 1.14237 -3.47699 -18.7629
ltibia 7.18067
lfoot -11.1509 11.2641
ltoes -9.17782
726
root 6.3938 18.9112 8.73446 -176.174 2.56181 -180.759
lowerback -1.39903 0.742935 -2.98575
upperback -0.27254 1.03392 1.01194
thorax 0.433319 0.515625 2.73014
lowerneck -13.403 -2.90034 -3.5125
upperneck 16.3551 -2.9941 0.11949
head 7.28756 -1.54127 0.323818
rclavicle -1.67725e-015 -3.77691e-015
rhumerus -26.8566 30.3032 -100.427
rradius 111.059
rwrist -24.7111
rhand 64.0628 55.8428
rfingers 7.12502
rthumb 74.9669 -463.181
lclavicle -1.67725e-015 -3.77691e-015
lhumerus -31.336 -33.6344 109.748
lradius 115.572
lwrist 23.1128
lhand -37.8777 25.136
lfingers 7.12502
lthumb -10.9213 54.8319
rfemur -1.14116 13.4433 15.5553
rtibia 8.3562
rfoot -4.76141 -20.839
rtoes 12.1702
lfemur 1.2446 -3.24147 -18.8508
ltibia 6.98258
lfoot -11.1885 11.2308
ltoes -9.07327
727
root 6.39231 18.9072 8.73781 -176.078 2.59692 -180.674
lowerback -1.40893 0.758012 -2.89929
upperback -0.31304 1.05344 1.03547
thorax 0.397119 0.526995 2.70577
lowerneck -13.4238 -2.86855 -3.50491
upperneck 16.3037 -2.95769 0.132344
head 7.27374 -1.52334 0.330364
rclavicle -1.03989e-014 1.98785e-016
rhumerus -27.1407 31.0849 -100.943
rradius 110.802
rwrist -24.9018
rhand 60.9756 55.7505
rfingers 7.12502
rthumb 74.7843 -451.665
lclavicle -1.03989e-014 1.98785e-016
lhumerus -31.8312 -34.4213 110.413
lradius 115.081
lwrist 22.617
lhand -37.7859 21.4598
lfingers 7.12502
lthumb -10.8328 51.1605
rfemur -1.2908 13.4791 15.6013
rtibia 8.41077
rfoot -4.66008 -20.8382
rtoes 10.6143
lfemur 1.35432 -3.19904 -18.7689
ltibia 6.62712
lfoot -11.1123 11.1777
ltoes -8.41708
728
root 6.38802 18.9099 8.74221 -175.971 2.45741 -180.784
lowerback -1.41183 0.710406 -2.94521
upperback -0.363958 0.990662 0.979968
thorax 0.35102 0.497049 2.67314
lowerneck -13.39 -2.83296 -3.49632
upperneck 16.1701 -2.92666 0.170766
head 7.22398 -1.50641 0.345499
rclavicle -1.08089e-015 4.37326e-015
rhumerus -27.3872 31.6247 -101.377
rradius 110.927
rwrist -26.5707
rhand 62.7646 55.7821
rfingers 7.12502
rthumb 74.9651 -458.286
lclavicle -1.08089e-015 4.37326e-015
lhumerus -31.8352 -35.282 110.905
lradius 114.717
lwrist 22.4234
lhand -28.6664 29.3375
lfingers 7.12502
lthumb -2.02954 59.3076
rfemur -1.40401 13.3255 15.4442
rtibia 8.38188
rfoot -4.71509 -20.8341
rtoes 10.2271
lfemur 1.33322 -3.34511 -18.9028
ltibia 6.37214
lfoot -10.96 11.1963
ltoes -8.1762
729
root 6.38559 18.9151 8.74571 -175.83 2.36654 -180.916
lowerback -1.47297 0.701169 -3.02459
upperback -0.423748 0.981506 0.90874
thorax 0.324501 0.493858 2.64474
lowerneck -13.4082 -2.83058 -3.42611
upperneck 16.1391 -2.93212 0.127929
head 7.21524 -1.50935 0.319394
rclavicle 8.32411e-016 3.18055e-015
rhumerus -27.6208 32.0599 -101.902
rradius 110.856
rwrist -27.6558
rhand 62.5322 58.0645
rfingers 7.12502
rthumb 74.9533 -459.704
lclavicle 8.32411e-016 3.18055e-015
lhumerus -32.1082 -36.146 111.506
lradius 114.473
lwrist 22.1255
lhand -30.3788 30.05
lfingers 7.12502
lthumb -3.68328 59.9979
rfemur -1.53947 13.216 15.2697
rtibia 8.3007
rfoot -4.63986 -20.8317
rtoes 10.3537
lfemur 1.23429 -3.44421 -19.0407
ltibia 6.19887
lfoot -10.839 11.1977
ltoes -7.99029
730
root 6.38749 18.9146 8.74939 -175.717 2.38962 -180.753
lowerback -1.54823 0.745135 -2.84519
upperback -0.450808 1.04025 0.908392
thorax 0.338194 0.523734 2.54534
lowerneck -13.4574 -2.5255 -3.37004
upperneck 16.1909 -3.02471 0.0895635
head 7.23772 -1.75121 0.26273
rclavicle 3.52843e-015 -7.15625e-015
rhumerus -27.9786 32.9517 -102.702
rradius 110.338
rwrist -25.7366
rhand 51.9987 60.1209
rfingers 7.12502
rthumb 71.2017 -291.341
lclavicle 3.52843e-015 -7.15625e-015
lhumerus -32.8656 -36.9902 112.201
lradius 114.297
lwrist 21.5803
lhand -32.2035 30.5381
lfingers 7.12502
lthumb -5.44521 60.4482
rfemur -1.63889 13.2468 15.451
rtibia 8.22969
rfoot -4.32417 -20.7989
rtoes 10.3337
lfemur 1.20486 -3.40914 -18.8408
ltibia 6.00999
lfoot -10.8049 11.2157
ltoes -7.26929
731
root 6.39112 18.9149 8.75291 -175.709 2.48429 -180.623
lowerback -1.53004 0.785731 -2.72648
upperback -0.387919 1.09176 0.909206
thorax 0.391347 0.547537 2.4806
lowerneck -13.7244 -2.49094 -3.31653
upperneck 16.2976 -2.97238 0.0833576
head 7.31728 -1.72183 0.253195
rclavicle -5.11871e-015 -5.76476e-015
rhumerus -28.3554 33.9949 -103.455
rradius 109.941
rwrist -24.0915
rhand 41.9245 60.0546
rfingers 7.12502
rthumb 63.97 -308.749
lclavicle -5.11871e-015 -5.76476e-015
lhumerus -33.5067 -37.6856 112.812
lradius 113.95
lwrist 20.929
lhand -34.171 30.6337
lfingers 7.12502
lthumb -7.34467 60.4862
rfemur -1.68326 13.354 15.5945
rtibia 8.26253
rfoot -4.18032 -20.786
rtoes 10.7668
lfemur 1.37299 -3.30677 -18.7028
ltibia 5.68867
lfoot -10.675 11.3141
ltoes -7.06313
732
root 6.39121 18.9173 8.74975 -175.696 2.67387 -180.774
lowerback -1.5825 0.835065 -2.85017
upperback -0.290837 1.16049 0.834655
thorax 0.514997 0.577874 2.47654
lowerneck -14.0391 -2.77767 -3.33505
upperneck 16.3401 -2.87878 0.193996
head 7.38945 -1.47709 0.321914
rclavicle 1.81018e-014 1.59028e-015
rhumerus -28.4674 34.543 -103.853
rradius 109.873
rwrist -25.6559
rhand 41.9357 60.9045
rfingers 7.12502
rthumb 63.9791 -307.885
lclavicle 1.81018e-014 1.59028e-015
lhumerus -33.6066 -38.3208 113.307
lradius 113.708
lwrist 20.6038
lhand -36.1463 31.2014
lfingers 7.12502
lthumb -9.25098 60.9785
rfemur -1.85562 13.5301 15.3671
rtibia 8.49421
rfoot -4.31003 -20.8505
rtoes 10.3954
lfemur 1.71087 -3.13 -18.8974
ltibia 5.08434
lfoot -10.3949 11.4336
ltoes -7.59849
733
root 6.38585 18.9116 8.74429 -175.591 2.64677 -181.092
lowerback -1.74485 0.816339 -3.0443
upperback -0.238101 1.14452 0.691858
thorax 0.660196 0.566146 2.44196
lowerneck -14.2161 -2.5209 -3.4808
upperneck 16.2776 -2.99502 0.412889
head 7.40497 -1.7012 0.379866
rclavicle -3.23025e-015 7.95139e-016
rhumerus -28.3803 34.552 -103.91
rradius 110.224
rwrist -29.2508
rhand 49.2835 62.5496
rfingers 7.12502
rthumb 69.4758 -294.788
lclavicle -3.23025e-015 7.95139e-016
lhumerus -33.3678 -38.9465 113.67
lradius 113.745
lwrist 21.0669
lhand -37.8706 31.8939
lfingers 7.12502
lthumb -10.9144 61.5902
rfemur -2.18615 13.4688 14.9543
rtibia 8.92842
rfoot -4.68763 -20.9023
rtoes 10.1542
lfemur 2.16975 -3.17986 -19.2487
ltibia 4.01789
lfoot -9.98759 11.4977
ltoes -7.25783
